REM DIRINDEX 1\8,1\2\11,1\3\12,1\3\14,1\5\15,1\5\16,1\6\17,1\6\18,1\4\19,1\4\20,1\4\21,1\4\22,1\7\23,1\7\24,1\7\25,1\2\9\26,1\2\9\27,1\2\10\28,1\2\10\29,1\2\10\30,1\2\10\31,1\2\10\32,1\3\13\33,1\3\13\34,1\3\13\35
REM DIRNAME folder01,folder02,folder03,folder04,folder05,folder06,folder07,folder08,folder09,folder10,folder11,folder12,folder13,folder14,folder15,folder16,folder17,folder18,folder19,folder20,folder21,folder22,folder23,folder24,folder25,folder26,folder27,folder28,folder29,folder30,folder31,folder32,folder33,folder34,folder35
TITLE ""
FILE "1-03 003_UNIT1_SET1.mp3" MP3
  TRACK 01 AUDIO
    TITLE "11:cjc123_0083"
    INDEX 01 00:00:00
  TRACK 02 AUDIO
    TITLE "0:"
    INDEX 01 00:02:57
  TRACK 03 AUDIO
    TITLE "28:cjc123_0084"
    INDEX 01 00:03:37
  TRACK 04 AUDIO
    TITLE "0:"
    INDEX 01 00:04:52
  TRACK 05 AUDIO
    TITLE "29:cjc123_0085"
    INDEX 01 00:04:58
  TRACK 06 AUDIO
    TITLE "0:"
    INDEX 01 00:06:04
  TRACK 07 AUDIO
    TITLE "30:cjc123_0086"
    INDEX 01 00:06:16
  TRACK 08 AUDIO
    TITLE "0:"
    INDEX 01 00:07:27
  TRACK 09 AUDIO
    TITLE "31:cjc123_0087"
    INDEX 01 00:07:74
  TRACK 10 AUDIO
    TITLE "0:"
    INDEX 01 00:10:39
  TRACK 11 AUDIO
    TITLE "32:cjc123_0088"
    INDEX 01 00:11:05
  TRACK 12 AUDIO
    TITLE "0:"
    INDEX 01 00:13:65
  TRACK 13 AUDIO
    TITLE "28:cjc123_0089"
    INDEX 01 00:14:11
  TRACK 14 AUDIO
    TITLE "0:"
    INDEX 01 00:15:30
  TRACK 15 AUDIO
    TITLE "29:cjc123_0090"
    INDEX 01 00:15:42
  TRACK 16 AUDIO
    TITLE "0:"
    INDEX 01 00:16:71
  TRACK 17 AUDIO
    TITLE "30:cjc123_0091"
    INDEX 01 00:17:04
  TRACK 18 AUDIO
    TITLE "0:"
    INDEX 01 00:18:27
  TRACK 19 AUDIO
    TITLE "31:cjc123_0092"
    INDEX 01 00:19:01
  TRACK 20 AUDIO
    TITLE "0:"
    INDEX 01 00:21:74
  TRACK 21 AUDIO
    TITLE "32:cjc123_0093"
    INDEX 01 00:22:50
  TRACK 22 AUDIO
    TITLE "0:"
    INDEX 01 00:25:58
  TRACK 23 AUDIO
    TITLE "28:cjc123_0094"
    INDEX 01 00:26:42
  TRACK 24 AUDIO
    TITLE "0:"
    INDEX 01 00:27:32
  TRACK 25 AUDIO
    TITLE "29:cjc123_0095"
    INDEX 01 00:27:45
  TRACK 26 AUDIO
    TITLE "0:"
    INDEX 01 00:28:53
  TRACK 27 AUDIO
    TITLE "30:cjc123_0096"
    INDEX 01 00:28:72
  TRACK 28 AUDIO
    TITLE "0:"
    INDEX 01 00:29:62
  TRACK 29 AUDIO
    TITLE "31:cjc123_0097"
    INDEX 01 00:30:38
  TRACK 30 AUDIO
    TITLE "0:"
    INDEX 01 00:33:40
  TRACK 31 AUDIO
    TITLE "32:cjc123_0098"
    INDEX 01 00:34:14
  TRACK 32 AUDIO
    TITLE "0:"
    INDEX 01 00:36:70
  TRACK 33 AUDIO
    TITLE "28:cjc123_0099"
    INDEX 01 00:37:32
  TRACK 34 AUDIO
    TITLE "0:"
    INDEX 01 00:38:37
  TRACK 35 AUDIO
    TITLE "29:cjc123_0100"
    INDEX 01 00:38:45
  TRACK 36 AUDIO
    TITLE "0:"
    INDEX 01 00:40:09
  TRACK 37 AUDIO
    TITLE "30:cjc123_0101"
    INDEX 01 00:40:24
  TRACK 38 AUDIO
    TITLE "0:"
    INDEX 01 00:41:22
  TRACK 39 AUDIO
    TITLE "31:cjc123_0102"
    INDEX 01 00:42:00
  TRACK 40 AUDIO
    TITLE "0:"
    INDEX 01 00:44:36
  TRACK 41 AUDIO
    TITLE "32:cjc123_0103"
    INDEX 01 00:44:71
  TRACK 42 AUDIO
    TITLE "0:"
    INDEX 01 00:47:40
  TRACK 43 AUDIO
    TITLE "28:cjc123_0104"
    INDEX 01 00:48:00
  TRACK 44 AUDIO
    TITLE "0:"
    INDEX 01 00:49:12
  TRACK 45 AUDIO
    TITLE "29:cjc123_0105"
    INDEX 01 00:49:20
  TRACK 46 AUDIO
    TITLE "0:"
    INDEX 01 00:50:62
  TRACK 47 AUDIO
    TITLE "30:cjc123_0106"
    INDEX 01 00:50:74
  TRACK 48 AUDIO
    TITLE "0:"
    INDEX 01 00:52:04
  TRACK 49 AUDIO
    TITLE "31:cjc123_0107"
    INDEX 01 00:52:49
  TRACK 50 AUDIO
    TITLE "0:"
    INDEX 01 00:55:38
  TRACK 51 AUDIO
    TITLE "32:cjc123_0108"
    INDEX 01 00:55:63
  TRACK 52 AUDIO
    TITLE "0:"
    INDEX 01 00:58:71
  TRACK 53 AUDIO
    TITLE "28:cjc123_0109"
    INDEX 01 00:59:32
  TRACK 54 AUDIO
    TITLE "0:"
    INDEX 01 01:00:45
  TRACK 55 AUDIO
    TITLE "29:cjc123_0110"
    INDEX 01 01:00:64
  TRACK 56 AUDIO
    TITLE "0:"
    INDEX 01 01:02:30
  TRACK 57 AUDIO
    TITLE "30:cjc123_0111"
    INDEX 01 01:02:40
  TRACK 58 AUDIO
    TITLE "0:"
    INDEX 01 01:03:59
  TRACK 59 AUDIO
    TITLE "31:cjc123_0112"
    INDEX 01 01:04:31
  TRACK 60 AUDIO
    TITLE "0:"
    INDEX 01 01:07:00
  TRACK 61 AUDIO
    TITLE "32:cjc123_0113"
    INDEX 01 01:07:39
  TRACK 62 AUDIO
    TITLE "0:"
    INDEX 01 01:10:20
  TRACK 63 AUDIO
    TITLE "28:cjc123_0114"
    INDEX 01 01:10:51
  TRACK 64 AUDIO
    TITLE "0:"
    INDEX 01 01:11:58
  TRACK 65 AUDIO
    TITLE "29:cjc123_0115"
    INDEX 01 01:12:03
  TRACK 66 AUDIO
    TITLE "0:"
    INDEX 01 01:13:30
  TRACK 67 AUDIO
    TITLE "30:cjc123_0116"
    INDEX 01 01:13:44
  TRACK 68 AUDIO
    TITLE "0:"
    INDEX 01 01:14:43
  TRACK 69 AUDIO
    TITLE "31:cjc123_0117"
    INDEX 01 01:15:15
  TRACK 70 AUDIO
    TITLE "0:"
    INDEX 01 01:17:57
  TRACK 71 AUDIO
    TITLE "32:cjc123_0118"
    INDEX 01 01:18:07
  TRACK 72 AUDIO
    TITLE "0:"
    INDEX 01 01:20:61
  TRACK 73 AUDIO
    TITLE "28:cjc123_0119"
    INDEX 01 01:21:27
  TRACK 74 AUDIO
    TITLE "0:"
    INDEX 01 01:22:23
  TRACK 75 AUDIO
    TITLE "29:cjc123_0120"
    INDEX 01 01:22:37
  TRACK 76 AUDIO
    TITLE "0:"
    INDEX 01 01:23:56
  TRACK 77 AUDIO
    TITLE "30:cjc123_0121"
    INDEX 01 01:24:02
  TRACK 78 AUDIO
    TITLE "0:"
    INDEX 01 01:25:00
  TRACK 79 AUDIO
    TITLE "31:cjc123_0122"
    INDEX 01 01:25:49
  TRACK 80 AUDIO
    TITLE "0:"
    INDEX 01 01:28:74
  TRACK 81 AUDIO
    TITLE "32:cjc123_0123"
    INDEX 01 01:29:25
  TRACK 82 AUDIO
    TITLE "0:"
    INDEX 01 01:32:21
  TRACK 83 AUDIO
    TITLE "28:cjc123_0124"
    INDEX 01 01:32:55
  TRACK 84 AUDIO
    TITLE "0:"
    INDEX 01 01:33:70
  TRACK 85 AUDIO
    TITLE "29:cjc123_0125"
    INDEX 01 01:34:05
  TRACK 86 AUDIO
    TITLE "0:"
    INDEX 01 01:35:14
  TRACK 87 AUDIO
    TITLE "30:cjc123_0126"
    INDEX 01 01:35:27
  TRACK 88 AUDIO
    TITLE "0:"
    INDEX 01 01:36:47
  TRACK 89 AUDIO
    TITLE "31:cjc123_0127"
    INDEX 01 01:37:21
  TRACK 90 AUDIO
    TITLE "0:"
    INDEX 01 01:40:13
  TRACK 91 AUDIO
    TITLE "32:cjc123_0128"
    INDEX 01 01:40:23
  TRACK 92 AUDIO
    TITLE "0:"
    INDEX 01 01:42:71
  TRACK 93 AUDIO
    TITLE "28:cjc123_0129"
    INDEX 01 01:43:47
  TRACK 94 AUDIO
    TITLE "0:"
    INDEX 01 01:44:58
  TRACK 95 AUDIO
    TITLE "29:cjc123_0130"
    INDEX 01 01:45:06
  TRACK 96 AUDIO
    TITLE "0:"
    INDEX 01 01:46:18
  TRACK 97 AUDIO
    TITLE "30:cjc123_0131"
    INDEX 01 01:46:31
  TRACK 98 AUDIO
    TITLE "0:"
    INDEX 01 01:47:44
  TRACK 99 AUDIO
    TITLE "31:cjc123_0132"
    INDEX 01 01:48:22
  TRACK 100 AUDIO
    TITLE "0:"
    INDEX 01 01:50:45
  TRACK 101 AUDIO
    TITLE "32:cjc123_0133"
    INDEX 01 01:51:07
  TRACK 102 AUDIO
    TITLE "0:"
    INDEX 01 01:53:35
  TRACK 103 AUDIO
    TITLE "28:cjc123_0134"
    INDEX 01 01:54:05
  TRACK 104 AUDIO
    TITLE "0:"
    INDEX 01 01:55:05
  TRACK 105 AUDIO
    TITLE "29:cjc123_0135"
    INDEX 01 01:55:22
  TRACK 106 AUDIO
    TITLE "0:"
    INDEX 01 01:56:71
  TRACK 107 AUDIO
    TITLE "30:cjc123_0136"
    INDEX 01 01:57:06
  TRACK 108 AUDIO
    TITLE "0:"
    INDEX 01 01:58:07
  TRACK 109 AUDIO
    TITLE "31:cjc123_0137"
    INDEX 01 01:58:62
  TRACK 110 AUDIO
    TITLE "0:"
    INDEX 01 02:01:68
  TRACK 111 AUDIO
    TITLE "32:cjc123_0138"
    INDEX 01 02:02:20
  TRACK 112 AUDIO
    TITLE "0:"
    INDEX 01 02:05:70
  TRACK 113 AUDIO
    TITLE "28:cjc123_0139"
    INDEX 01 02:06:36
  TRACK 114 AUDIO
    TITLE "0:"
    INDEX 01 02:07:45
  TRACK 115 AUDIO
    TITLE "29:cjc123_0140"
    INDEX 01 02:07:55
  TRACK 116 AUDIO
    TITLE "0:"
    INDEX 01 02:09:22
  TRACK 117 AUDIO
    TITLE "30:cjc123_0141"
    INDEX 01 02:09:36
  TRACK 118 AUDIO
    TITLE "0:"
    INDEX 01 02:10:47
  TRACK 119 AUDIO
    TITLE "31:cjc123_0142"
    INDEX 01 02:11:19
  TRACK 120 AUDIO
    TITLE "0:"
    INDEX 01 02:13:56
  TRACK 121 AUDIO
    TITLE "32:cjc123_0143"
    INDEX 01 02:13:63
  TRACK 122 AUDIO
    TITLE "0:"
    INDEX 01 02:16:48
  TRACK 123 AUDIO
    TITLE "28:cjc123_0144"
    INDEX 01 02:17:20
  TRACK 124 AUDIO
    TITLE "0:"
    INDEX 01 02:18:12
  TRACK 125 AUDIO
    TITLE "29:cjc123_0145"
    INDEX 01 02:18:29
  TRACK 126 AUDIO
    TITLE "0:"
    INDEX 01 02:19:40
  TRACK 127 AUDIO
    TITLE "30:cjc123_0146"
    INDEX 01 02:19:54
  TRACK 128 AUDIO
    TITLE "0:"
    INDEX 01 02:20:46
  TRACK 129 AUDIO
    TITLE "31:cjc123_0147"
    INDEX 01 02:21:32
  TRACK 130 AUDIO
    TITLE "0:"
    INDEX 01 02:24:34
  TRACK 131 AUDIO
    TITLE "32:cjc123_0148"
    INDEX 01 02:24:53
  TRACK 132 AUDIO
    TITLE "0:"
    INDEX 01 02:27:34
  TRACK 133 AUDIO
    TITLE "28:cjc123_0149"
    INDEX 01 02:28:10
  TRACK 134 AUDIO
    TITLE "0:"
    INDEX 01 02:29:11
  TRACK 135 AUDIO
    TITLE "29:cjc123_0150"
    INDEX 01 02:29:33
  TRACK 136 AUDIO
    TITLE "0:"
    INDEX 01 02:30:52
  TRACK 137 AUDIO
    TITLE "30:cjc123_0151"
    INDEX 01 02:31:03
  TRACK 138 AUDIO
    TITLE "0:"
    INDEX 01 02:32:02
  TRACK 139 AUDIO
    TITLE "31:cjc123_0152"
    INDEX 01 02:32:59
  TRACK 140 AUDIO
    TITLE "0:"
    INDEX 01 02:35:73
  TRACK 141 AUDIO
    TITLE "32:cjc123_0153"
    INDEX 01 02:36:37
  TRACK 142 AUDIO
    TITLE "0:"
    INDEX 01 02:39:51
  TRACK 143 AUDIO
    TITLE "28:cjc123_0154"
    INDEX 01 02:40:43
  TRACK 144 AUDIO
    TITLE "0:"
    INDEX 01 02:41:36
  TRACK 145 AUDIO
    TITLE "29:cjc123_0155"
    INDEX 01 02:41:52
  TRACK 146 AUDIO
    TITLE "0:"
    INDEX 01 02:43:08
  TRACK 147 AUDIO
    TITLE "30:cjc123_0156"
    INDEX 01 02:43:25
  TRACK 148 AUDIO
    TITLE "0:"
    INDEX 01 02:44:15
  TRACK 149 AUDIO
    TITLE "31:cjc123_0157"
    INDEX 01 02:44:52
  TRACK 150 AUDIO
    TITLE "0:"
    INDEX 01 02:47:27
  TRACK 151 AUDIO
    TITLE "32:cjc123_0158"
    INDEX 01 02:47:56
  TRACK 152 AUDIO
    TITLE "0:"
    INDEX 01 02:50:39
